<svg width="41" height="41" viewBox="0 0 41 41" fill="none" xmlns="http://www.w3.org/2000/svg">
<g clip-path="url(#clip0_1_383)">
<path d="M39.4187 24.8633C39.0505 24.8633 38.7521 25.1618 38.7521 25.5299V32.3766C38.7521 33.113 38.1551 33.7099 37.4187 33.7099H26.6187C26.2505 33.7099 25.9521 34.0084 25.9521 34.3766C25.9521 34.7448 26.2505 35.0433 26.6187 35.0433H37.4187C38.8915 35.0433 40.0854 33.8494 40.0854 32.3766V25.5299C40.0854 25.1618 39.7869 24.8633 39.4187 24.8633Z" fill="#A8D5BA"/>
<path d="M36.0854 29.0434V31.0434H34.0854C33.7172 31.0434 33.4187 31.3419 33.4187 31.71C33.4187 32.0782 33.7172 32.3767 34.0854 32.3767H36.7521C37.1203 32.3767 37.4187 32.0782 37.4187 31.71V29.0434C37.4187 28.6752 37.1203 28.3767 36.7521 28.3767C36.3839 28.3767 36.0854 28.6752 36.0854 29.0434Z" fill="#A8D5BA"/>
<path d="M37.4187 2.37671H2.75207C1.27931 2.37671 0.0854034 3.57062 0.0854034 5.04338V32.3767C0.0854034 33.8495 1.27931 35.0434 2.75207 35.0434H9.5254C9.89359 35.0434 10.1921 34.7449 10.1921 34.3767C10.1921 34.0085 9.89359 33.71 9.5254 33.71H2.75207C2.01569 33.71 1.41874 33.1131 1.41874 32.3767V11.71H38.7521V15.9834C38.7521 16.3516 39.0505 16.65 39.4187 16.65C39.7869 16.65 40.0854 16.3516 40.0854 15.9834V5.04338C40.0854 3.57062 38.8915 2.37671 37.4187 2.37671ZM1.41874 10.3767V5.04338C1.41874 4.307 2.01569 3.71004 2.75207 3.71004H37.4187C38.1551 3.71004 38.7521 4.307 38.7521 5.04338V10.3767H1.41874Z" fill="#A8D5BA"/>
<path d="M4.75207 5.04346C3.6475 5.04346 2.75207 5.93889 2.75207 7.04346C2.75207 8.14803 3.6475 9.04346 4.75207 9.04346C5.85664 9.04346 6.75207 8.14803 6.75207 7.04346C6.75207 5.93889 5.85664 5.04346 4.75207 5.04346ZM4.75207 7.71012C4.38388 7.71012 4.0854 7.41165 4.0854 7.04346C4.0854 6.67527 4.38388 6.37679 4.75207 6.37679C5.12026 6.37679 5.41873 6.67527 5.41873 7.04346C5.41873 7.41165 5.12026 7.71012 4.75207 7.71012Z" fill="#A8D5BA"/>
<path d="M10.0854 5.04346C8.98083 5.04346 8.0854 5.93889 8.0854 7.04346C8.0854 8.14803 8.98083 9.04346 10.0854 9.04346C11.19 9.04346 12.0854 8.14803 12.0854 7.04346C12.0854 5.93889 11.19 5.04346 10.0854 5.04346ZM10.0854 7.71012C9.71721 7.71012 9.41874 7.41165 9.41874 7.04346C9.41874 6.67527 9.71721 6.37679 10.0854 6.37679C10.4536 6.37679 10.7521 6.67527 10.7521 7.04346C10.7521 7.41165 10.4536 7.71012 10.0854 7.71012Z" fill="#A8D5BA"/>
<path d="M15.4187 5.04346C14.3142 5.04346 13.4187 5.93889 13.4187 7.04346C13.4187 8.14803 14.3142 9.04346 15.4187 9.04346C16.5233 9.04346 17.4187 8.14803 17.4187 7.04346C17.4187 5.93889 16.5233 5.04346 15.4187 5.04346ZM15.4187 7.71012C15.0505 7.71012 14.7521 7.41165 14.7521 7.04346C14.7521 6.67527 15.0505 6.37679 15.4187 6.37679C15.7869 6.37679 16.0854 6.67527 16.0854 7.04346C16.0854 7.41165 15.7869 7.71012 15.4187 7.71012Z" fill="#A8D5BA"/>
<path d="M4.08541 15.0433H18.0854C18.4536 15.0433 18.7521 14.7448 18.7521 14.3766C18.7521 14.0084 18.4536 13.71 18.0854 13.71H4.08541C3.71722 13.71 3.41874 14.0084 3.41874 14.3766C3.41874 14.7448 3.71722 15.0433 4.08541 15.0433Z" fill="#A8D5BA"/>
<path d="M4.08541 18.3768H18.0854C18.4536 18.3768 18.7521 18.0783 18.7521 17.7101C18.7521 17.3419 18.4536 17.0435 18.0854 17.0435H4.08541C3.71722 17.0435 3.41874 17.3419 3.41874 17.7101C3.41874 18.0783 3.71722 18.3768 4.08541 18.3768Z" fill="#A8D5BA"/>
<path d="M4.08541 21.71H18.0854C18.4536 21.71 18.7521 21.4116 18.7521 21.0434C18.7521 20.6752 18.4536 20.3767 18.0854 20.3767H4.08541C3.71722 20.3767 3.41874 20.6752 3.41874 21.0434C3.41874 21.4116 3.71722 21.71 4.08541 21.71Z" fill="#A8D5BA"/>
<path d="M4.08541 25.0433H18.0854C18.4536 25.0433 18.7521 24.7448 18.7521 24.3766C18.7521 24.0084 18.4536 23.71 18.0854 23.71H4.08541C3.71722 23.71 3.41874 24.0084 3.41874 24.3766C3.41874 24.7448 3.71722 25.0433 4.08541 25.0433Z" fill="#A8D5BA"/>
<path d="M4.08541 28.3768H15.1654C15.5336 28.3768 15.8321 28.0783 15.8321 27.7101C15.8321 27.3419 15.5336 27.0435 15.1654 27.0435H4.08541C3.71722 27.0435 3.41874 27.3419 3.41874 27.7101C3.41874 28.0783 3.71722 28.3768 4.08541 28.3768Z" fill="#A8D5BA"/>
<path d="M4.08541 31.71H10.7521C11.1203 31.71 11.4187 31.4116 11.4187 31.0434C11.4187 30.6752 11.1203 30.3767 10.7521 30.3767H4.08541C3.71722 30.3767 3.41874 30.6752 3.41874 31.0434C3.41874 31.4116 3.71722 31.71 4.08541 31.71Z" fill="#A8D5BA"/>
<path d="M22.0854 15.0433H36.0854C36.4536 15.0433 36.7521 14.7448 36.7521 14.3766C36.7521 14.0084 36.4536 13.71 36.0854 13.71H22.0854C21.7172 13.71 21.4187 14.0084 21.4187 14.3766C21.4187 14.7448 21.7172 15.0433 22.0854 15.0433Z" fill="#A8D5BA"/>
<path d="M22.0854 18.3768H29.4187C29.7869 18.3768 30.0854 18.0783 30.0854 17.7101C30.0854 17.3419 29.7869 17.0435 29.4187 17.0435H22.0854C21.7172 17.0435 21.4187 17.3419 21.4187 17.7101C21.4187 18.0783 21.7172 18.3768 22.0854 18.3768Z" fill="#A8D5BA"/>
<path d="M22.0854 21.71H24.7521C25.1203 21.71 25.4187 21.4116 25.4187 21.0434C25.4187 20.6752 25.1203 20.3767 24.7521 20.3767H22.0854C21.7172 20.3767 21.4187 20.6752 21.4187 21.0434C21.4187 21.4116 21.7172 21.71 22.0854 21.71Z" fill="#A8D5BA"/>
<path d="M10.2241 38.4234C10.4705 38.7837 10.8789 38.9993 11.3154 38.9994C11.423 38.9993 11.5302 38.9863 11.6347 38.9607L18.8521 37.2101C19.0119 37.1718 19.1632 37.104 19.2981 37.0101L32.3521 27.9807L35.0934 26.0854L38.9314 23.4307C40.1411 22.592 40.4438 20.9325 39.6081 19.7207L38.0907 17.5274C37.2531 16.3161 35.5921 16.0131 34.3807 16.8507L30.5427 19.5054L27.8054 21.4007L14.7481 30.4314C14.6131 30.5241 14.4966 30.6412 14.4047 30.7767L10.2187 36.9141C9.90531 37.369 9.90743 37.9707 10.2241 38.4234ZM28.0187 22.8767L31.0521 27.2634L18.9861 35.6054L15.9521 31.2194L28.0187 22.8767ZM30.7601 20.9807L33.7941 25.3674L32.1454 26.5047L29.1121 22.1181L30.7601 20.9807ZM35.1467 17.9467C35.4377 17.7455 35.7966 17.6682 36.1446 17.7317C36.4925 17.7952 36.801 17.9944 37.0021 18.2854L38.5187 20.4781C38.7201 20.769 38.7976 21.1281 38.7341 21.4763C38.6706 21.8244 38.4713 22.133 38.1801 22.3341L34.8854 24.6087L31.8514 20.2221L35.1467 17.9467ZM15.0287 32.2274L17.7167 36.1141L14.9394 36.7874L13.4187 34.5881L15.0287 32.2274ZM12.6141 35.7681L13.5521 37.1241L11.3207 37.6647L12.6141 35.7681Z" fill="#A8D5BA"/>
</g>
<defs>
<clipPath id="clip0_1_383">
<rect width="40" height="40" fill="white" transform="translate(0.0854034 0.709961)"/>
</clipPath>
</defs>
</svg>
