<svg width="71" height="63" viewBox="0 0 71 63" fill="none" xmlns="http://www.w3.org/2000/svg">
<path d="M24.8282 22.7591H26.2346V24.1657C26.2346 25.1128 27.0051 25.8832 27.9522 25.8832H31.6798C32.6269 25.8832 33.3974 25.1126 33.3974 24.1657V22.7591H34.8038C35.7509 22.7591 36.5214 21.9886 36.5214 21.0417V17.3139C36.5214 16.3667 35.7509 15.5963 34.8038 15.5963H33.3974V14.1899C33.3974 13.2427 32.6269 12.4723 31.6798 12.4723H27.9522C27.0051 12.4723 26.2346 13.2428 26.2346 14.1899V15.5963H24.8282C23.8811 15.5963 23.1106 16.3669 23.1106 17.3139V21.0417C23.1106 21.9886 23.8811 22.7591 24.8282 22.7591ZM25.1613 17.6471H26.5678C27.5148 17.6471 28.2854 16.8765 28.2854 15.9296V14.5231H31.3466V15.9296C31.3466 16.8767 32.1172 17.6471 33.0642 17.6471H34.4707V20.7085H33.0642C32.117 20.7085 31.3466 21.479 31.3466 22.4261V23.8325H28.2854V22.4261C28.2854 21.4789 27.5148 20.7085 26.5678 20.7085H25.1613V17.6471Z" fill="#03A9F4"/>
<path d="M68.843 43.3804L64.3549 42.5008C64.3545 42.5007 64.354 42.5007 64.3535 42.5007C64.3533 42.5007 64.353 42.5005 64.3527 42.5005L57.3649 41.1474C55.9393 38.8507 54.0301 37.3722 51.6841 36.7501C47.0322 35.5164 42.2967 38.1067 41.3945 38.6382C40.8547 38.9564 40.2011 38.9971 39.6464 38.7479L31.6838 35.1673C29.3012 34.0956 26.4897 35.156 25.416 37.5303C24.3208 39.8255 25.451 42.7794 27.793 43.769L35.1048 47.0393C33.2249 48.0672 31.6776 49.0283 30.7548 49.6233L15.2457 37.4931C13.7157 36.2965 11.7079 36.1086 10.037 36.8315L7.85562 35.6971C5.35572 34.3973 2.25767 35.3678 0.949409 37.8608C0.315307 39.0694 0.19103 40.4514 0.599135 41.7524C1.00779 43.0548 1.90097 44.1194 3.11421 44.7505L17.5043 52.2341L29.4159 61.5505C30.5084 62.4083 31.9494 62.7915 33.3247 62.5846L48.676 60.3295C49.2364 60.2472 49.6237 59.7263 49.5414 59.166C49.4591 58.6056 48.9371 58.2181 48.378 58.3006L33.0268 60.5553C32.2013 60.677 31.336 60.4483 30.6793 59.9348L18.7088 50.5723C18.7082 50.5719 18.7077 50.5714 18.7071 50.5709L10.1853 43.9057C8.86953 42.9198 8.62316 40.893 9.6681 39.6234C10.7145 38.2977 12.6501 38.0666 13.9823 39.1083L29.7194 51.4169C30.2734 51.85 31.0409 51.8834 31.6302 51.4995C33.2913 50.4163 41.8803 44.9895 47.8469 44.5298C51.5966 44.2422 54.7501 45.3117 56.7283 47.5438C57.104 47.9676 57.7519 48.0067 58.1759 47.6312C58.5997 47.2555 58.6388 46.6074 58.2633 46.1836C55.849 43.4595 52.0943 42.1453 47.6894 42.4852C44.4641 42.7336 40.6791 44.2226 37.425 45.8303L28.63 41.8965C27.9749 41.6034 27.4745 41.0744 27.2211 40.4068C26.9693 39.7435 26.9919 39.0219 27.2844 38.3749C27.893 37.0286 29.4893 36.4291 30.8426 37.0374L38.8052 40.618C39.9662 41.1399 41.3233 41.0602 42.4353 40.4049C42.9128 40.1234 47.2128 37.6862 51.1581 38.7323C53.0911 39.2448 54.6627 40.5381 55.8291 42.576C55.9773 42.8351 56.231 43.0166 56.5241 43.0734L63.1321 44.3529V58.365L56.589 57.1495C56.478 57.129 56.3643 57.1267 56.2527 57.1432L53.0897 57.6078C52.5293 57.6901 52.142 58.211 52.2243 58.7713C52.3066 59.3317 52.8288 59.7197 53.3877 59.6367L56.3822 59.1969L63.9703 60.6065C63.9709 60.6066 63.9713 60.6066 63.9718 60.6066C63.9722 60.6067 63.9728 60.6069 63.9732 60.6069L68.1423 61.3692C68.6875 61.47 69.256 61.3233 69.6861 60.9634C70.1164 60.6047 70.3632 60.0776 70.3632 59.5176V45.2277C70.3633 44.33 69.7239 43.5531 68.843 43.3804ZM2.55585 41.1381C2.31208 40.3613 2.3866 39.5356 2.76544 38.8134C3.55021 37.3179 5.40917 36.7362 6.90953 37.5164L8.19714 38.1861C8.15011 38.2408 8.10349 38.2959 8.05837 38.3529C7.2129 39.4245 6.83665 40.7598 6.99921 42.1133C7.15138 43.3806 7.75869 44.521 8.71777 45.3528L4.06058 42.9308C3.33447 42.5532 2.80017 41.9165 2.55585 41.1381ZM68.3125 59.3158L65.183 58.7435V44.753L68.3125 45.3663V59.3158Z" fill="#03A9F4"/>
<path d="M10.2657 9.31873H10.4708V30.0316C10.4708 31.2755 11.4828 32.2875 12.7266 32.2875H46.9056C48.1494 32.2875 49.1615 31.2755 49.1615 30.0316V9.31873H49.3666C50.3843 9.31873 51.2123 8.49076 51.2123 7.47302V2.82458C51.2123 1.80685 50.3843 0.978882 49.3666 0.978882H18.3939C17.0361 1.02591 17.0372 2.98304 18.3939 3.02966H49.1614V7.26794H10.4708V3.02966H13.5703C14.9281 2.98263 14.927 1.0255 13.5703 0.978882H10.2657C9.24795 0.978882 8.41998 1.80685 8.41998 2.82458V7.47302C8.41998 8.49076 9.24795 9.31873 10.2657 9.31873ZM12.5215 16.3163H17.0363V22.0392H12.5215V16.3163ZM47.1106 22.0393H42.5958V16.3164H47.1106V22.0393ZM47.1106 9.31873V14.2656H42.4223C41.3872 14.2656 40.5452 15.1077 40.5452 16.1428V22.2127C40.5452 23.2478 41.3872 24.09 42.4223 24.09H47.1106V30.0315C47.1106 30.1445 47.0186 30.2366 46.9055 30.2366H12.7266C12.6136 30.2366 12.5215 30.1445 12.5215 30.0315V24.09H17.2098C18.2449 24.09 19.0869 23.2478 19.0869 22.2127V16.1428C19.0869 15.1077 18.2447 14.2656 17.2098 14.2656H12.5215V9.31873H47.1106Z" fill="#03A9F4"/>
</svg>
