<svg width="25" height="24" viewBox="0 0 25 24" fill="none" xmlns="http://www.w3.org/2000/svg">
<g clip-path="url(#clip0_1_733)">
<path d="M12.9568 7.95703C10.6854 7.95703 8.85324 9.76054 8.85324 11.9965C8.85324 14.2324 10.6854 16.0359 12.9568 16.0359C15.2282 16.0359 17.0604 14.2324 17.0604 11.9965C17.0604 9.76054 15.2282 7.95703 12.9568 7.95703ZM12.9568 14.6227C11.489 14.6227 10.289 13.4449 10.289 11.9965C10.289 10.548 11.4854 9.37031 12.9568 9.37031C14.4282 9.37031 15.6247 10.548 15.6247 11.9965C15.6247 13.4449 14.4247 14.6227 12.9568 14.6227ZM18.1854 7.7918C18.1854 8.31562 17.7568 8.73398 17.2282 8.73398C16.6961 8.73398 16.2711 8.31211 16.2711 7.7918C16.2711 7.27148 16.6997 6.84961 17.2282 6.84961C17.7568 6.84961 18.1854 7.27148 18.1854 7.7918ZM20.9032 8.74804C20.8425 7.48594 20.5497 6.36797 19.6104 5.44687C18.6747 4.52578 17.5389 4.2375 16.2568 4.17422C14.9354 4.10039 10.9747 4.10039 9.65324 4.17422C8.37467 4.23398 7.23895 4.52227 6.29967 5.44336C5.36038 6.36445 5.0711 7.48242 5.00681 8.74453C4.93181 10.0453 4.93181 13.9441 5.00681 15.2449C5.06753 16.507 5.36038 17.625 6.29967 18.5461C7.23895 19.4672 8.37109 19.7555 9.65324 19.8187C10.9747 19.8926 14.9354 19.8926 16.2568 19.8187C17.5389 19.759 18.6747 19.4707 19.6104 18.5461C20.5461 17.625 20.8389 16.507 20.9032 15.2449C20.9782 13.9441 20.9782 10.0488 20.9032 8.74804ZM19.1961 16.6406C18.9175 17.3297 18.3782 17.8605 17.6747 18.1383C16.6211 18.5496 14.1211 18.4547 12.9568 18.4547C11.7925 18.4547 9.28895 18.5461 8.23895 18.1383C7.53895 17.8641 6.99967 17.3332 6.71752 16.6406C6.29967 15.6035 6.3961 13.1426 6.3961 11.9965C6.3961 10.8504 6.30324 8.38594 6.71752 7.35234C6.9961 6.66328 7.53538 6.13242 8.23895 5.85469C9.29252 5.44336 11.7925 5.53828 12.9568 5.53828C14.1211 5.53828 16.6247 5.44687 17.6747 5.85469C18.3747 6.12891 18.9139 6.65976 19.1961 7.35234C19.6139 8.38945 19.5175 10.8504 19.5175 11.9965C19.5175 13.1426 19.6139 15.607 19.1961 16.6406Z" fill="white"/>
</g>
<defs>
<clipPath id="clip0_1_733">
<rect width="16" height="18" fill="white" transform="translate(4.95325 3)"/>
</clipPath>
</defs>
</svg>
