<svg width="25" height="24" viewBox="0 0 25 24" fill="none" xmlns="http://www.w3.org/2000/svg">
<g clip-path="url(#clip0_1_737)">
<path d="M8.58594 19V8.87947H5.15563V19H8.58594ZM6.87123 7.49686C8.06743 7.49686 8.81202 6.71972 8.81202 5.74856C8.78973 4.7555 8.06748 3.99994 6.89393 3.99994C5.72056 3.99994 4.95325 4.75552 4.95325 5.74856C4.95325 6.71977 5.69764 7.49686 6.84883 7.49686H6.87112H6.87123ZM10.4846 19H13.9149V13.3482C13.9149 13.0457 13.9372 12.7435 14.0278 12.5273C14.2758 11.923 14.8402 11.2971 15.7878 11.2971C17.0291 11.2971 17.5256 12.2251 17.5256 13.5856V18.9999H20.9557V13.1969C20.9557 10.0883 19.2634 8.64187 17.0065 8.64187C15.156 8.64187 14.3435 9.6562 13.8921 10.3471H13.915V8.87926H10.4847C10.5297 9.82891 10.4847 18.9997 10.4847 18.9997L10.4846 19Z" fill="white"/>
</g>
<defs>
<clipPath id="clip0_1_737">
<rect width="16" height="15" fill="white" transform="translate(4.95325 4)"/>
</clipPath>
</defs>
</svg>
