<svg width="19" height="18" viewBox="0 0 19 18" fill="none" xmlns="http://www.w3.org/2000/svg">
<g clip-path="url(#clip0_1_719)">
<path d="M11.8574 3.80542C12.586 3.94683 13.2556 4.30132 13.7805 4.82351C14.3054 5.34569 14.6618 6.01183 14.8039 6.73665L11.8574 3.80542ZM11.8574 0.837084C13.3712 1.00438 14.7827 1.67874 15.8604 2.74944C16.938 3.82014 17.6177 5.22354 17.7877 6.72922L11.8574 0.837084ZM17.0418 12.651V14.8773C17.0426 15.084 17.0001 15.2885 16.9168 15.4779C16.8336 15.6673 16.7115 15.8372 16.5585 15.977C16.4054 16.1167 16.2246 16.2231 16.0278 16.2893C15.831 16.3555 15.6225 16.3801 15.4156 16.3615C13.1202 16.1133 10.9153 15.333 8.97807 14.0833C7.17574 12.9439 5.64767 11.4238 4.50238 9.63077C3.24172 7.69483 2.45718 5.49068 2.21232 3.19691C2.19368 2.9917 2.2182 2.78487 2.28431 2.58961C2.35042 2.39434 2.45667 2.2149 2.59631 2.06272C2.73595 1.91055 2.90591 1.78896 3.09537 1.70571C3.28483 1.62246 3.48964 1.57936 3.69676 1.57917H5.93461C6.29662 1.57562 6.64758 1.70315 6.92206 1.93799C7.19655 2.17282 7.37584 2.49894 7.4265 2.85555C7.52096 3.568 7.69613 4.26753 7.94867 4.9408C8.04903 5.20641 8.07075 5.49508 8.01126 5.77259C7.95176 6.0501 7.81355 6.30484 7.61299 6.5066L6.66563 7.44904C7.72753 9.30688 9.27381 10.8451 11.1413 11.9015L12.0887 10.9591C12.2915 10.7596 12.5476 10.6221 12.8265 10.5629C13.1055 10.5037 13.3956 10.5253 13.6626 10.6252C14.3394 10.8764 15.0426 11.0507 15.7587 11.1446C16.1211 11.1955 16.452 11.377 16.6886 11.6548C16.9252 11.9326 17.0509 12.2871 17.0418 12.651Z" stroke="#03A9F4" stroke-linecap="round" stroke-linejoin="round"/>
</g>
<defs>
<clipPath id="clip0_1_719">
<rect width="17.9028" height="17.81" fill="white" transform="translate(0.63092 0.0950003)"/>
</clipPath>
</defs>
</svg>
