<svg width="41" height="40" viewBox="0 0 41 40" fill="none" xmlns="http://www.w3.org/2000/svg">
<path d="M32.1698 26.5322C32.1605 26.5349 32.1511 26.538 32.1418 26.5412L22.4223 29.9602C22.2316 29.027 21.6829 28.0788 20.7149 27.6477L14.1484 24.7127C12.548 23.9985 11.1689 24.2779 10.0305 24.6455L5.96015 25.9631L5.77093 25.3161C5.67953 25.0039 5.46786 24.7408 5.18248 24.5847C4.89711 24.4286 4.5614 24.3922 4.24922 24.4836L1.04781 25.4203C0.735817 25.512 0.472829 25.7235 0.316399 26.0085C0.159968 26.2936 0.122833 26.629 0.213121 26.9414L3.64117 38.6602C3.73228 38.9725 3.94371 39.236 4.22898 39.3925C4.51424 39.549 4.84999 39.5859 5.16242 39.4949L8.36898 38.5574C8.6801 38.4652 8.94204 38.2535 9.09749 37.9687C9.25295 37.6839 9.28927 37.3491 9.19851 37.0375L8.94531 36.1723L10.1797 35.8485L15.8262 37.9138C16.6737 38.2232 17.5556 38.5044 18.4569 38.5044C19.0712 38.5085 19.6774 38.3643 20.224 38.0842L32.7923 31.6615C32.7965 31.6594 32.8007 31.6572 32.8048 31.6549C32.9173 31.5938 33.035 31.5337 33.1598 31.4699C34.1159 30.9817 35.5608 30.2438 34.9813 28.2646C34.6016 26.9672 33.3404 26.1906 32.1698 26.5322ZM8.13968 37.4451C8.123 37.4764 8.09465 37.4998 8.06078 37.5103L4.85765 38.4469C4.82323 38.4562 4.78652 38.4519 4.75524 38.4348C4.72395 38.4176 4.70051 38.389 4.68984 38.355L1.26187 26.6363C1.25223 26.6016 1.25664 26.5646 1.27414 26.5332C1.29066 26.5023 1.31874 26.4791 1.35226 26.4688L1.35343 26.4685L4.55765 25.531C4.56935 25.5275 4.58148 25.5258 4.59367 25.5258C4.61632 25.526 4.63857 25.5318 4.65843 25.5427C4.67378 25.5509 4.68734 25.5621 4.69833 25.5756C4.70931 25.5891 4.7175 25.6047 4.72242 25.6214L8.15132 37.3456C8.15616 37.3621 8.15762 37.3795 8.15562 37.3965C8.15362 37.4136 8.1482 37.4301 8.13968 37.4451ZM32.6641 30.4975C32.5406 30.5606 32.4131 30.6257 32.29 30.6928L19.7283 37.1117C18.7053 37.6327 17.6994 37.4352 16.2016 36.8882L10.3947 34.7641C10.2901 34.7258 10.1764 34.7204 10.0687 34.7485L8.63898 35.1234L6.26632 27.011L10.366 25.6838C11.7176 25.2474 12.6846 25.2549 13.7028 25.7092L20.2698 28.6439C20.938 28.9417 21.4059 29.7891 21.4079 30.7045C21.4079 30.7069 21.4084 30.7092 21.4084 30.7116C21.4084 30.7139 21.4079 30.7168 21.4079 30.7194C21.4078 30.9814 21.3605 31.2412 21.2684 31.4864C20.837 32.6252 19.7215 32.6661 18.8967 32.3558L14.4766 30.6976C14.4094 30.6724 14.338 30.6607 14.2664 30.6631C14.1947 30.6655 14.1243 30.682 14.059 30.7117C13.9937 30.7413 13.9349 30.7835 13.886 30.8359C13.837 30.8883 13.7989 30.9498 13.7737 31.0169C13.7485 31.084 13.7368 31.1554 13.7392 31.2271C13.7416 31.2987 13.7581 31.3692 13.7877 31.4345C13.8174 31.4997 13.8596 31.5585 13.912 31.6075C13.9643 31.6564 14.0258 31.6946 14.093 31.7198L18.5128 33.3784C18.9133 33.5333 19.3385 33.6147 19.7679 33.6185C20.9074 33.6185 21.867 32.9896 22.2894 31.8749C22.384 31.625 22.447 31.3642 22.4769 31.0986L32.4885 27.5766C33.0689 27.4162 33.7282 27.8688 33.9338 28.5714C34.2448 29.6333 33.7123 29.9621 32.6641 30.4975ZM20.6937 11.396C19.2797 11.6105 18.0098 12.2866 16.9788 13.3838C15.8326 14.6036 15.0459 16.3037 14.7637 18.1707L14.4647 20.146C14.3921 20.5856 14.4184 21.036 14.5417 21.4642C14.665 21.8924 14.8822 22.2878 15.1775 22.6215C16.597 24.2717 21.7723 24.4006 23.3324 24.4006H23.3368C24.4829 24.4006 30.2733 24.3138 31.729 22.622C32.0244 22.2883 32.2418 21.893 32.3652 21.4647C32.4885 21.0364 32.5149 20.586 32.4423 20.1463L32.1434 18.1709C31.8612 16.3037 31.0744 14.6036 29.9281 13.3838C28.8973 12.287 27.6273 11.6104 26.2133 11.396C26.4591 11.1918 26.6851 10.9648 26.8881 10.718C27.8656 9.53126 28.3823 7.85861 28.3823 5.88126C28.3823 4.57408 27.863 3.32043 26.9387 2.39611C26.0143 1.47179 24.7607 0.952515 23.4535 0.952515C22.1463 0.952515 20.8927 1.47179 19.9684 2.39611C19.044 3.32043 18.5248 4.57408 18.5248 5.88126C18.5248 7.85876 19.0414 9.53126 20.0189 10.718C20.2218 10.9649 20.4477 11.192 20.6934 11.3963L20.6937 11.396ZM31.0634 18.3344L31.3625 20.3102C31.4112 20.5942 31.3951 20.8856 31.3153 21.1624C31.2356 21.4393 31.0943 21.6946 30.902 21.9092L30.9013 21.9099C30.3041 22.6046 27.5137 23.3083 23.3363 23.3089H23.331C19.7262 23.3089 16.7138 22.7337 16.0044 21.9091C15.812 21.6945 15.6706 21.4392 15.5908 21.1623C15.511 20.8854 15.4948 20.594 15.5435 20.3099L15.843 18.3344C16.2883 15.3874 18.2691 12.4138 21.6903 12.4138H25.2161C28.6372 12.4138 30.618 15.3874 31.0634 18.3344ZM23.4531 2.04462C24.4704 2.04576 25.4456 2.45033 26.1649 3.16958C26.8842 3.88883 27.2889 4.86404 27.2902 5.88126C27.2902 9.61915 25.3012 11.3216 23.4532 11.3216C21.6052 11.3216 19.6162 9.61947 19.6162 5.88126C19.6175 4.86406 20.0221 3.88888 20.7414 3.16964C21.4607 2.45039 22.4359 2.0458 23.4531 2.04462ZM3.89117 27.2582C3.90945 27.3281 3.9137 27.4008 3.90366 27.4723C3.89362 27.5438 3.8695 27.6126 3.8327 27.6748C3.79589 27.7369 3.74713 27.7911 3.68923 27.8342C3.63134 27.8774 3.56546 27.9086 3.49541 27.9261C3.42537 27.9436 3.35254 27.947 3.28116 27.9362C3.20977 27.9254 3.14124 27.9005 3.07954 27.863C3.01784 27.8255 2.96418 27.7762 2.92168 27.7178C2.87918 27.6594 2.84868 27.5932 2.83195 27.523L2.82976 27.5141C2.81238 27.4445 2.80887 27.3722 2.81943 27.3013C2.82999 27.2304 2.85441 27.1623 2.8913 27.1008C2.92819 27.0394 2.97682 26.9858 3.03443 26.9431C3.09203 26.9004 3.15748 26.8695 3.22703 26.8521C3.29658 26.8347 3.36887 26.8312 3.43977 26.8418C3.51068 26.8523 3.57881 26.8768 3.64028 26.9137C3.70175 26.9506 3.75535 26.9992 3.79802 27.0568C3.84069 27.1144 3.8716 27.1798 3.88898 27.2494L3.89117 27.2582ZM31.0263 7.04533V11.7681C31.028 11.9117 31.0863 12.0489 31.1885 12.1499C31.2907 12.2508 31.4286 12.3075 31.5722 12.3075C31.7159 12.3075 31.8538 12.2508 31.9559 12.1499C32.0581 12.0489 32.1164 11.9117 32.1181 11.7681V7.04533C32.4645 6.93086 32.7659 6.7101 32.9795 6.41446C33.1932 6.11882 33.3082 5.76333 33.3082 5.39857C33.3082 5.0338 33.1932 4.67832 32.9795 4.38268C32.7659 4.08704 32.4645 3.86628 32.1181 3.75181V2.80751C32.1164 2.66386 32.0581 2.52668 31.9559 2.42571C31.8538 2.32473 31.7159 2.26811 31.5722 2.26811C31.4286 2.26811 31.2907 2.32473 31.1885 2.42571C31.0863 2.52668 31.028 2.66386 31.0263 2.80751V3.75197C30.68 3.86644 30.3786 4.08719 30.1649 4.38284C29.9512 4.67848 29.8362 5.03396 29.8362 5.39873C29.8362 5.76349 29.9512 6.11897 30.1649 6.41461C30.3786 6.71026 30.68 6.93101 31.0263 7.04548V7.04533ZM31.5722 4.75517C31.6994 4.75516 31.8239 4.79288 31.9297 4.86357C32.0355 4.93426 32.118 5.03475 32.1667 5.15232C32.2154 5.26989 32.2282 5.39927 32.2033 5.52409C32.1785 5.64891 32.1173 5.76357 32.0273 5.85356C31.9373 5.94355 31.8226 6.00484 31.6978 6.02968C31.573 6.05451 31.4436 6.04177 31.326 5.99307C31.2085 5.94438 31.108 5.86191 31.0373 5.75609C30.9666 5.65028 30.9288 5.52587 30.9288 5.39861C30.9291 5.22806 30.9969 5.06457 31.1175 4.94399C31.2381 4.8234 31.4016 4.75555 31.5722 4.75533V4.75517ZM8.03015 15.4301C8.44616 15.4306 8.84499 15.596 9.13915 15.8902C9.43331 16.1844 9.59876 16.5832 9.59922 16.9992C9.59922 17.144 9.65673 17.2829 9.75912 17.3853C9.8615 17.4877 10.0004 17.5452 10.1452 17.5452C10.2899 17.5452 10.4288 17.4877 10.5312 17.3853C10.6336 17.2829 10.6911 17.144 10.6911 16.9992C10.6915 16.5832 10.857 16.1844 11.1512 15.8902C11.4453 15.596 11.8441 15.4306 12.2602 15.4301C12.3324 15.431 12.4041 15.4175 12.4711 15.3904C12.5381 15.3634 12.599 15.3233 12.6504 15.2725C12.7018 15.2218 12.7426 15.1613 12.7704 15.0946C12.7983 15.028 12.8126 14.9564 12.8126 14.8842C12.8126 14.8119 12.7983 14.7404 12.7704 14.6738C12.7426 14.6071 12.7018 14.5466 12.6504 14.4959C12.599 14.4451 12.5381 14.405 12.4711 14.378C12.4041 14.3509 12.3324 14.3374 12.2602 14.3383C11.8442 14.3378 11.4453 14.1724 11.1512 13.8782C10.857 13.5841 10.6915 13.1852 10.6911 12.7692C10.6911 12.6244 10.6336 12.4856 10.5312 12.3832C10.4288 12.2808 10.2899 12.2233 10.1452 12.2233C10.0004 12.2233 9.8615 12.2808 9.75912 12.3832C9.65673 12.4856 9.59922 12.6244 9.59922 12.7692C9.59874 13.1852 9.43328 13.584 9.13912 13.8782C8.84497 14.1724 8.44615 14.3378 8.03015 14.3383C7.95791 14.3374 7.88622 14.3509 7.81923 14.378C7.75225 14.405 7.69129 14.4451 7.6399 14.4959C7.58851 14.5466 7.54771 14.6071 7.51987 14.6738C7.49202 14.7404 7.47768 14.8119 7.47768 14.8842C7.47768 14.9564 7.49202 15.028 7.51987 15.0946C7.54771 15.1613 7.58851 15.2218 7.6399 15.2725C7.69129 15.3233 7.75225 15.3634 7.81923 15.3904C7.88622 15.4175 7.95791 15.431 8.03015 15.4301ZM10.1452 14.3823C10.2895 14.5711 10.4583 14.7399 10.6471 14.8842C10.4583 15.0286 10.2895 15.1974 10.1452 15.3863C10.0008 15.1974 9.83197 15.0286 9.64312 14.8842C9.83195 14.7399 10.0008 14.5711 10.1452 14.3823ZM38.9748 4.39205V2.80751C38.9748 2.66272 38.9173 2.52386 38.8149 2.42148C38.7126 2.3191 38.5737 2.26158 38.4289 2.26158C38.2841 2.26158 38.1452 2.3191 38.0429 2.42148C37.9405 2.52386 37.883 2.66272 37.883 2.80751V4.39205C37.5366 4.50652 37.2352 4.72727 37.0215 5.02291C36.8079 5.31856 36.6929 5.67404 36.6929 6.0388C36.6929 6.40357 36.8079 6.75905 37.0215 7.05469C37.2352 7.35034 37.5366 7.57109 37.883 7.68556V11.7682C37.883 11.913 37.9405 12.0519 38.0429 12.1543C38.1452 12.2566 38.2841 12.3142 38.4289 12.3142C38.5737 12.3142 38.7126 12.2566 38.8149 12.1543C38.9173 12.0519 38.9748 11.913 38.9748 11.7682V7.68548C39.3212 7.57099 39.6226 7.35024 39.8362 7.0546C40.0498 6.75897 40.1648 6.40351 40.1648 6.03876C40.1648 5.67402 40.0498 5.31856 39.8362 5.02292C39.6226 4.72729 39.3212 4.50654 38.9748 4.39205ZM38.4289 6.6822C38.3016 6.68222 38.1772 6.64449 38.0714 6.5738C37.9656 6.5031 37.8831 6.40261 37.8344 6.28503C37.7857 6.16746 37.7729 6.03808 37.7977 5.91326C37.8226 5.78843 37.8839 5.67378 37.9738 5.58379C38.0638 5.49379 38.1785 5.43251 38.3033 5.40769C38.4281 5.38286 38.5575 5.39561 38.6751 5.44432C38.7927 5.49303 38.8932 5.57551 38.9639 5.68134C39.0345 5.78716 39.0723 5.91158 39.0723 6.03884C39.072 6.2094 39.0042 6.37291 38.8836 6.49352C38.763 6.61412 38.5995 6.68197 38.4289 6.6822ZM11.7552 9.88009C12.3039 9.88073 12.83 10.099 13.218 10.487C13.606 10.875 13.8242 11.4011 13.8248 11.9498C13.824 12.022 13.8375 12.0937 13.8645 12.1607C13.8916 12.2277 13.9316 12.2886 13.9824 12.34C14.0332 12.3914 14.0936 12.4322 14.1603 12.4601C14.227 12.4879 14.2985 12.5022 14.3707 12.5022C14.443 12.5022 14.5145 12.4879 14.5812 12.4601C14.6478 12.4322 14.7083 12.3914 14.7591 12.34C14.8099 12.2886 14.8499 12.2277 14.877 12.1607C14.904 12.0937 14.9175 12.022 14.9166 11.9498C14.9176 11.4008 15.1362 10.8745 15.5246 10.4865C15.913 10.0985 16.4395 9.88044 16.9885 9.88009C17.1322 9.87837 17.2693 9.8201 17.3703 9.71791C17.4713 9.61572 17.5279 9.47785 17.5279 9.33419C17.5279 9.19053 17.4713 9.05266 17.3703 8.95047C17.2693 8.84828 17.1322 8.79001 16.9885 8.78829C16.4392 8.7877 15.9126 8.56923 15.5242 8.18082C15.1357 7.79242 14.9173 7.2658 14.9166 6.7165C14.9175 6.64426 14.904 6.57257 14.877 6.50558C14.8499 6.43859 14.8099 6.37764 14.7591 6.32625C14.7083 6.27486 14.6478 6.23406 14.5812 6.20621C14.5145 6.17837 14.443 6.16403 14.3707 6.16403C14.2985 6.16403 14.227 6.17837 14.1603 6.20621C14.0936 6.23406 14.0332 6.27486 13.9824 6.32625C13.9316 6.37764 13.8916 6.43859 13.8645 6.50558C13.8375 6.57257 13.824 6.64426 13.8248 6.7165C13.8245 7.26549 13.6064 7.79194 13.2184 8.18034C12.8304 8.56874 12.3042 8.78738 11.7552 8.78829C11.683 8.78743 11.6113 8.80091 11.5443 8.82796C11.4773 8.85501 11.4164 8.89508 11.365 8.94586C11.3136 8.99663 11.2728 9.0571 11.2449 9.12376C11.2171 9.19043 11.2028 9.26195 11.2028 9.33419C11.2028 9.40644 11.2171 9.47796 11.2449 9.54462C11.2728 9.61128 11.3136 9.67175 11.365 9.72253C11.4164 9.77331 11.4773 9.81338 11.5443 9.84043C11.6113 9.86747 11.683 9.88096 11.7552 9.88009ZM14.3709 8.49158C14.5963 8.82296 14.8821 9.10889 15.2134 9.33439C14.8822 9.55957 14.5964 9.84518 14.3709 10.1763C14.1457 9.8452 13.8601 9.55959 13.5291 9.33439C13.8602 9.10887 14.1458 8.82294 14.3709 8.49158ZM35.5469 7.60126V2.80751C35.5469 2.66272 35.4894 2.52386 35.387 2.42148C35.2846 2.3191 35.1457 2.26158 35.0009 2.26158C34.8561 2.26158 34.7173 2.3191 34.6149 2.42148C34.5125 2.52386 34.455 2.66272 34.455 2.80751V7.60126C34.1088 7.71617 33.8076 7.9372 33.5941 8.23299C33.3806 8.52877 33.2658 8.88427 33.2658 9.24904C33.2658 9.61381 33.3806 9.96931 33.5941 10.2651C33.8076 10.5609 34.1088 10.7819 34.455 10.8968V11.7682C34.455 11.913 34.5125 12.0519 34.6149 12.1543C34.7173 12.2566 34.8561 12.3142 35.0009 12.3142C35.1457 12.3142 35.2846 12.2566 35.387 12.1543C35.4894 12.0519 35.5469 11.913 35.5469 11.7682V10.8969C35.8931 10.782 36.1943 10.5609 36.4077 10.2652C36.6212 9.96939 36.7361 9.61388 36.7361 9.24912C36.7361 8.88435 36.6212 8.52884 36.4077 8.23306C36.1943 7.93728 35.8931 7.71617 35.5469 7.60126ZM35.0009 9.89345C34.8734 9.89368 34.7486 9.85605 34.6424 9.78532C34.5362 9.71459 34.4535 9.61395 34.4045 9.49613C34.3556 9.37832 34.3427 9.24863 34.3676 9.1235C34.3924 8.99836 34.4538 8.88341 34.544 8.7932C34.6342 8.70298 34.7491 8.64157 34.8743 8.61673C34.9994 8.59189 35.1291 8.60474 35.2469 8.65365C35.3647 8.70257 35.4654 8.78535 35.5361 8.89151C35.6069 8.99767 35.6445 9.12244 35.6443 9.25001C35.6441 9.42067 35.5762 9.58428 35.4555 9.70492C35.3348 9.82556 35.1712 9.89337 35.0005 9.89345H35.0009Z" fill="#A8D5BA"/>
</svg>
