<svg width="25" height="24" viewBox="0 0 25 24" fill="none" xmlns="http://www.w3.org/2000/svg">
<g clip-path="url(#clip0_1_741)">
<path d="M21.953 6.70478C21.279 6.98925 20.564 7.17598 19.832 7.25875C20.5945 6.82335 21.18 6.13386 21.4557 5.31235C20.7308 5.72216 19.9377 6.0109 19.1107 6.16608C18.437 5.48236 17.4773 5.05506 16.4151 5.05506C14.3756 5.05506 12.7221 6.6303 12.7221 8.57315C12.7221 8.84893 12.7548 9.1174 12.8177 9.37496C9.74858 9.2282 7.02749 7.8276 5.20604 5.69906C4.88823 6.21867 4.70612 6.82308 4.70612 7.46775C4.70612 8.68836 5.35813 9.76515 6.34897 10.3961C5.76253 10.3786 5.18899 10.2277 4.67624 9.956C4.67603 9.97073 4.67603 9.98547 4.67603 10.0003C4.67603 11.7049 5.94896 13.1268 7.63829 13.45C7.09449 13.5909 6.52407 13.6116 5.97062 13.5103C6.44052 14.908 7.80437 15.9252 9.42029 15.9536C8.15642 16.8972 6.56406 17.4597 4.83395 17.4597C4.53582 17.4597 4.24192 17.443 3.953 17.4105C5.58728 18.4087 7.52839 18.9911 9.61386 18.9911C16.4065 18.9911 20.1209 13.6302 20.1209 8.98116C20.1209 8.82856 20.1174 8.67684 20.1103 8.52599C20.8332 8.02807 21.4572 7.41136 21.953 6.70478Z" fill="white"/>
</g>
<defs>
<clipPath id="clip0_1_741">
<rect width="18" height="14" fill="white" transform="translate(3.953 5)"/>
</clipPath>
</defs>
</svg>
