<svg width="41" height="41" viewBox="0 0 41 41" fill="none" xmlns="http://www.w3.org/2000/svg">
<path d="M24.1133 8.4278H22.2383V6.5528C22.2383 6.38704 22.1724 6.22806 22.0552 6.11085C21.938 5.99364 21.779 5.9278 21.6133 5.9278H19.1133C18.9475 5.9278 18.7885 5.99364 18.6713 6.11085C18.5541 6.22806 18.4883 6.38704 18.4883 6.5528V8.4278H16.6133C16.4475 8.4278 16.2885 8.49364 16.1713 8.61085C16.0541 8.72806 15.9883 8.88704 15.9883 9.0528V11.5528C15.9883 11.7186 16.0541 11.8775 16.1713 11.9947C16.2885 12.1119 16.4475 12.1778 16.6133 12.1778H18.4883V14.0528C18.4883 14.2186 18.5541 14.3775 18.6713 14.4947C18.7885 14.6119 18.9475 14.6778 19.1133 14.6778H21.6133C21.779 14.6778 21.938 14.6119 22.0552 14.4947C22.1724 14.3775 22.2383 14.2186 22.2383 14.0528V12.1778H24.1133C24.279 12.1778 24.438 12.1119 24.5552 11.9947C24.6724 11.8775 24.7383 11.7186 24.7383 11.5528V9.0528C24.7383 8.88704 24.6724 8.72806 24.5552 8.61085C24.438 8.49364 24.279 8.4278 24.1133 8.4278ZM23.4883 10.9278H21.6133C21.4475 10.9278 21.2885 10.9936 21.1713 11.1109C21.0541 11.2281 20.9883 11.387 20.9883 11.5528V13.4278H19.7383V11.5528C19.7383 11.387 19.6724 11.2281 19.5552 11.1109C19.438 10.9936 19.279 10.9278 19.1133 10.9278H17.2383V9.6778H19.1133C19.279 9.6778 19.438 9.61195 19.5552 9.49474C19.6724 9.37753 19.7383 9.21856 19.7383 9.0528V7.1778H20.9883V9.0528C20.9883 9.21856 21.0541 9.37753 21.1713 9.49474C21.2885 9.61195 21.4475 9.6778 21.6133 9.6778H23.4883V10.9278Z" fill="#A8D5BA"/>
<path d="M37.6945 11.7778C37.7072 11.6678 37.7134 11.5572 37.7133 11.4466C37.7102 10.8737 37.5115 10.319 37.15 9.87455C36.7886 9.43008 36.286 9.12251 35.7258 9.0028C35.0921 8.88217 34.4362 9.00677 33.8908 9.35138C33.3455 9.696 32.9514 10.2349 32.7883 10.8591L30.0383 18.7716C29.9975 18.7877 29.9579 18.8065 29.9195 18.8278L24.3945 22.0653C23.5491 22.5619 22.8478 23.2705 22.3601 24.1211C21.8723 24.9717 21.6149 25.9348 21.6133 26.9153V32.8028C21.4475 32.8028 21.2885 32.8687 21.1713 32.9859C21.0541 33.1031 20.9883 33.262 20.9883 33.4278V38.4278C20.9883 38.5936 21.0541 38.7525 21.1713 38.8697C21.2885 38.987 21.4475 39.0528 21.6133 39.0528H30.3633C30.529 39.0528 30.688 38.987 30.8052 38.8697C30.9224 38.7525 30.9883 38.5936 30.9883 38.4278V33.4278C30.9883 33.262 30.9224 33.1031 30.8052 32.9859C30.688 32.8687 30.529 32.8028 30.3633 32.8028V31.4278C30.3645 31.1638 30.4206 30.903 30.5282 30.6619C30.6359 30.4209 30.7925 30.2049 30.9883 30.0278L35.2133 26.2716C35.6754 25.8672 36.0062 25.334 36.1633 24.7403L38.8758 14.5966C38.9337 14.3847 38.9631 14.1661 38.9633 13.9466C38.9608 13.5055 38.8423 13.0728 38.6196 12.6921C38.3968 12.3114 38.0778 11.9961 37.6945 11.7778ZM33.982 11.2278C34.0588 10.9046 34.2545 10.6222 34.5302 10.4368C34.8059 10.2515 35.1413 10.1768 35.4695 10.2278C35.7497 10.2865 36.0012 10.4395 36.1821 10.6613C36.3629 10.8832 36.4622 11.1603 36.4633 11.4466V11.4591C35.905 11.4694 35.3654 11.6618 34.9265 12.0071C34.4877 12.3523 34.1736 12.8314 34.032 13.3716L32.2883 18.7528C32.0243 18.6276 31.7412 18.5473 31.4508 18.5153L33.982 11.2278ZM29.7383 37.8028H22.2383V34.0528H29.7383V37.8028ZM37.6695 14.2716L34.9508 24.4216C34.8567 24.7743 34.6611 25.0916 34.3883 25.3341L30.157 29.0903C29.8296 29.3856 29.5676 29.7461 29.3879 30.1486C29.2081 30.5512 29.1146 30.9869 29.1133 31.4278V32.8028H22.8633V26.9153C22.8664 26.1528 23.0673 25.4041 23.4463 24.7424C23.8253 24.0807 24.3696 23.5287 25.0258 23.1403L30.5445 19.9091C30.6868 19.8261 30.8441 19.7722 31.0073 19.7502C31.1705 19.7283 31.3365 19.7388 31.4956 19.7812C31.6547 19.8236 31.8039 19.8971 31.9346 19.9973C32.0653 20.0975 32.1748 20.2226 32.257 20.3653C32.4194 20.6541 32.4641 20.9943 32.382 21.3153C32.3386 21.4738 32.2644 21.6222 32.1636 21.7519C32.0628 21.8817 31.9374 21.9903 31.7945 22.0716L28.2133 24.1403C28.0772 24.2268 27.9799 24.3625 27.9415 24.5191C27.9032 24.6756 27.9268 24.841 28.0075 24.9805C28.0881 25.1201 28.2196 25.2231 28.3744 25.268C28.5293 25.3129 28.6954 25.2963 28.8383 25.2216L32.4195 23.1528C32.7058 22.9904 32.9567 22.7724 33.1574 22.5115C33.3581 22.2507 33.5046 21.9524 33.5883 21.6341C33.7584 20.9946 33.6685 20.3137 33.3383 19.7403L33.3008 19.6841L35.232 13.7278C35.3088 13.4046 35.5045 13.1222 35.7802 12.9368C36.0559 12.7515 36.3913 12.6768 36.7195 12.7278C36.9997 12.7865 37.2512 12.9395 37.4321 13.1613C37.6129 13.3832 37.7122 13.6603 37.7133 13.9466C37.7154 14.0565 37.7006 14.1661 37.6695 14.2716Z" fill="#A8D5BA"/>
<path d="M19.1133 32.8028V26.9153C19.1117 25.9348 18.8542 24.9717 18.3665 24.1211C17.8787 23.2705 17.1775 22.5619 16.332 22.0653L10.807 18.8215C10.7695 18.8028 10.7258 18.7903 10.6883 18.7715L7.95703 10.9028C7.79828 10.2695 7.40421 9.72056 6.85501 9.36759C6.30581 9.01461 5.64276 8.88417 5.00078 9.00279C4.44052 9.12249 3.938 9.43007 3.57652 9.87453C3.21504 10.319 3.01631 10.8736 3.01328 11.4465C3.01311 11.5572 3.01937 11.6678 3.03203 11.7778C2.64875 11.9961 2.32971 12.3114 2.10699 12.6921C1.88428 13.0728 1.76573 13.5055 1.76328 13.9465C1.76449 14.1657 1.79176 14.3839 1.84453 14.5965L4.56327 24.734C4.71864 25.3302 5.04963 25.8659 5.51328 26.2715L9.73203 30.0278C9.92973 30.2037 10.0881 30.4193 10.1969 30.6605C10.3057 30.9017 10.3624 31.1632 10.3633 31.4278V32.8028C10.1975 32.8028 10.0385 32.8686 9.92133 32.9858C9.80412 33.1031 9.73828 33.262 9.73828 33.4278V38.4278C9.73828 38.5935 9.80412 38.7525 9.92133 38.8697C10.0385 38.9869 10.1975 39.0528 10.3633 39.0528H19.1133C19.279 39.0528 19.438 38.9869 19.5552 38.8697C19.6724 38.7525 19.7383 38.5935 19.7383 38.4278V33.4278C19.7383 33.262 19.6724 33.1031 19.5552 32.9858C19.438 32.8686 19.279 32.8028 19.1133 32.8028ZM4.26327 11.4465C4.26405 11.1612 4.36242 10.8847 4.54206 10.663C4.7217 10.4413 4.97179 10.2877 5.25078 10.2278C5.58806 10.1788 5.93139 10.2592 6.2119 10.4528C6.49241 10.6464 6.68937 10.9388 6.76328 11.2715L9.27578 18.5153C8.98534 18.5473 8.70228 18.6276 8.43828 18.7528L6.70703 13.4028C6.56613 12.8573 6.25142 12.3726 5.81051 12.0219C5.3696 11.6712 4.82647 11.4736 4.26327 11.459V11.4465ZM10.5633 29.0903L6.33828 25.334C6.06393 25.0903 5.86816 24.7705 5.77577 24.4153L3.05078 14.2715C3.0249 14.1652 3.01231 14.056 3.01328 13.9465C3.01405 13.6612 3.11242 13.3847 3.29206 13.163C3.4717 12.9413 3.72179 12.7877 4.00078 12.7278C4.33569 12.6775 4.67721 12.7559 4.95666 12.9473C5.23611 13.1386 5.43274 13.4286 5.50703 13.759L7.42578 19.684L7.38828 19.7403C7.05802 20.3137 6.96814 20.9946 7.13828 21.634C7.22196 21.9523 7.36847 22.2507 7.56919 22.5115C7.7699 22.7723 8.02077 22.9904 8.30703 23.1528L11.8883 25.2215C12.0311 25.2963 12.1973 25.3129 12.3521 25.268C12.5069 25.2231 12.6384 25.1201 12.7191 24.9805C12.7998 24.841 12.8234 24.6756 12.785 24.519C12.7467 24.3625 12.6493 24.2268 12.5133 24.1403L8.93203 22.0715C8.7892 21.9903 8.66379 21.8817 8.56298 21.7519C8.46217 21.6221 8.38794 21.4738 8.34453 21.3153C8.26242 20.9943 8.30719 20.6541 8.46953 20.3653C8.55119 20.2229 8.6601 20.098 8.79004 19.9976C8.91999 19.8973 9.06842 19.8236 9.22686 19.7807C9.3853 19.7377 9.55065 19.7264 9.71347 19.7473C9.87628 19.7683 10.0334 19.8211 10.1758 19.9028L15.7008 23.1403C16.357 23.5287 16.9012 24.0807 17.2803 24.7424C17.6593 25.4041 17.8602 26.1528 17.8633 26.9153V32.8028H11.6133V31.4278C11.6122 30.9863 11.5182 30.5499 11.3372 30.1472C11.1563 29.7445 10.8926 29.3843 10.5633 29.0903ZM18.4883 37.8028H10.9883V34.0528H18.4883V37.8028Z" fill="#A8D5BA"/>
<path d="M29.2052 3.51029C28.6249 2.92906 27.9358 2.46796 27.1772 2.15337C26.4186 1.83878 25.6054 1.67688 24.7841 1.67694C23.9628 1.677 23.1496 1.83901 22.3911 2.15371C21.6325 2.4684 20.9434 2.9296 20.3633 3.51091C19.7832 2.92959 19.0942 2.46838 18.3356 2.1537C17.5771 1.83902 16.7639 1.67705 15.9427 1.67705C15.1214 1.67705 14.3083 1.83902 13.5497 2.1537C12.7911 2.46838 12.1021 2.92959 11.522 3.51091C10.3522 4.68321 9.69528 6.27168 9.69528 7.92779C9.69528 9.58389 10.3522 11.1724 11.522 12.3447L19.922 20.7447C20.0392 20.8618 20.1982 20.9277 20.3639 20.9277C20.5296 20.9277 20.6886 20.8618 20.8058 20.7447L29.2058 12.3447C30.3755 11.1722 31.0324 9.58355 31.0323 7.92735C31.0322 6.27114 30.3751 4.68261 29.2052 3.51029ZM20.3633 19.419L12.4052 11.4609C11.7065 10.7613 11.2309 9.87024 11.0386 8.90038C10.8463 7.93053 10.9458 6.92543 11.3246 6.01214C11.7034 5.09884 12.3445 4.31837 13.1669 3.76937C13.9892 3.22037 14.9558 2.9275 15.9445 2.92779C16.6013 2.92553 17.252 3.05408 17.8586 3.30592C18.4652 3.55777 19.0156 3.92788 19.4777 4.39466L19.9214 4.83841C20.0386 4.95558 20.1976 5.02141 20.3633 5.02141C20.529 5.02141 20.688 4.95558 20.8052 4.83841L21.2502 4.39341C21.7142 3.92857 22.2653 3.55979 22.872 3.30817C23.4786 3.05656 24.129 2.92704 24.7858 2.92704C25.4426 2.92704 26.0929 3.05656 26.6996 3.30817C27.3063 3.55979 27.8574 3.92857 28.3214 4.39341C29.2576 5.3309 29.7835 6.60164 29.7835 7.92654C29.7835 9.25144 29.2576 10.5222 28.3214 11.4597L20.3633 19.419Z" fill="#A8D5BA"/>
</svg>
