<svg width="41" height="41" viewBox="0 0 41 41" fill="none" xmlns="http://www.w3.org/2000/svg">
<path d="M3.75703 18.9311H5.41953C5.79759 19.4613 6.29686 19.8935 6.87577 20.1917C7.45467 20.49 8.09645 20.6455 8.74765 20.6455C9.39886 20.6455 10.0406 20.49 10.6195 20.1917C11.1984 19.8935 11.6977 19.4613 12.0758 18.9311H13.757C13.9228 18.9311 14.0818 18.8652 14.199 18.748C14.3162 18.6308 14.382 18.4718 14.382 18.3061V15.3248C14.3837 13.9006 13.8403 12.5298 12.8633 11.4936V9.73731C12.8857 9.16691 12.7189 8.60508 12.3888 8.13934C12.0588 7.6736 11.5839 7.33009 11.0383 7.16231L10.1695 6.93731C9.23726 6.69375 8.25805 6.69375 7.32578 6.93731L6.45078 7.16231C5.90454 7.3299 5.42893 7.67315 5.09779 8.13878C4.76665 8.6044 4.59853 9.16634 4.61953 9.73731V11.5186C3.66178 12.555 3.12861 13.9136 3.12578 15.3248V18.3061C3.12577 18.3887 3.14214 18.4705 3.17394 18.5467C3.20574 18.6229 3.25234 18.6921 3.31104 18.7502C3.36974 18.8083 3.43938 18.8543 3.51593 18.8853C3.59248 18.9163 3.67443 18.9319 3.75703 18.9311ZM8.75703 19.3936C8.29691 19.3952 7.84327 19.2851 7.43505 19.0729C7.02682 18.8606 6.6762 18.5524 6.41328 18.1748C6.40256 18.1104 6.3792 18.0488 6.34453 17.9936C6.27311 17.8581 6.21048 17.7183 6.15703 17.5748C6.29036 17.5748 6.42161 17.5748 6.55078 17.5748H6.61328C7.53993 17.5375 8.43315 17.2184 9.1736 16.66C9.91404 16.1016 10.4665 15.3305 10.757 14.4498C11.1688 14.8472 11.4526 15.3584 11.5721 15.9179C11.6917 16.4775 11.6415 17.0601 11.4281 17.591C11.2146 18.1219 10.8476 18.577 10.374 18.8982C9.9004 19.2193 9.34174 19.3918 8.76953 19.3936H8.75703ZM5.87578 9.73731C5.85745 9.44327 5.93537 9.15126 6.09775 8.90544C6.26013 8.65962 6.49814 8.47335 6.77578 8.37481L7.64453 8.14356C8.00814 8.05135 8.3819 8.00515 8.75703 8.00606C9.13013 8.00454 9.5019 8.05075 9.86328 8.14356L10.7258 8.37481C11.0011 8.4755 11.2364 8.66268 11.3964 8.90831C11.5564 9.15394 11.6325 9.4448 11.6133 9.73731V10.4811L11.4633 10.4061C11.3883 10.3623 11.3133 10.3186 11.232 10.2811L10.8633 10.1186L10.6383 10.0248L10.2195 9.89981L10.0195 9.84356C9.81346 9.79444 9.6048 9.75688 9.39453 9.73106C9.18638 9.71871 8.97768 9.71871 8.76953 9.73106C8.48906 9.727 8.20879 9.74791 7.93203 9.79356H7.86328C7.6011 9.83331 7.3421 9.89179 7.08828 9.96856H7.01953C6.77598 10.0487 6.53797 10.1447 6.30703 10.2561C6.1656 10.3236 6.0279 10.3987 5.89453 10.4811L5.87578 9.73731ZM4.38203 15.3248C4.38047 14.6179 4.55023 13.9212 4.87677 13.2942C5.20331 12.6673 5.67691 12.1288 6.25703 11.7248C7.11802 11.1124 8.17723 10.8448 9.22578 10.9748C9.76334 11.0323 10.2851 11.1914 10.7633 11.4436C10.921 11.5255 11.0734 11.6173 11.2195 11.7186C11.4444 11.8659 11.6538 12.0355 11.8445 12.2248C12.2508 12.6311 12.573 13.1134 12.7929 13.6443C13.0127 14.1751 13.1258 14.744 13.1258 15.3186V17.6748H12.7508C12.8652 17.2978 12.9241 16.9062 12.9258 16.5123C12.9282 15.7371 12.7111 14.9771 12.2997 14.3201C11.8882 13.6632 11.2992 13.1361 10.6008 12.7998C10.5064 12.7577 10.4041 12.7363 10.3008 12.7373C10.2635 12.7311 10.2255 12.7311 10.1883 12.7373H10.1383C10.0849 12.7489 10.0341 12.7701 9.98828 12.7998C9.89839 12.8483 9.82177 12.9181 9.76511 13.0031C9.70846 13.0881 9.67349 13.1857 9.66328 13.2873C9.64557 13.4983 9.61002 13.7074 9.55703 13.9123C9.39262 14.4814 9.08051 14.9969 8.65239 15.4064C8.22428 15.8158 7.69541 16.1047 7.11953 16.2436C6.91447 16.2916 6.70507 16.3189 6.49453 16.3248H6.16953C5.94465 16.3085 5.72237 16.2666 5.50703 16.1998C5.44488 16.1904 5.38167 16.1904 5.31953 16.1998C5.27181 16.1937 5.2235 16.1937 5.17578 16.1998H5.08828C5.00045 16.2256 4.91938 16.2704 4.85078 16.3311C4.77942 16.395 4.72372 16.4744 4.68795 16.5633C4.65219 16.6522 4.63733 16.748 4.64453 16.8436C4.65571 16.9906 4.67659 17.1368 4.70703 17.2811C4.73828 17.3436 4.73828 17.4186 4.73828 17.4186C4.73828 17.4186 4.77578 17.5811 4.80078 17.6561H4.38203V15.3248Z" fill="#A8D5BA"/>
<path d="M20.3633 25.1247C21.4475 25.1308 22.5092 24.8146 23.4133 24.2161C24.3174 23.6175 25.0231 22.7637 25.4409 21.7632C25.8587 20.7626 25.9696 19.6605 25.7596 18.5967C25.5496 17.533 25.0281 16.5557 24.2614 15.789C23.4947 15.0223 22.5174 14.5008 21.4537 14.2908C20.39 14.0808 19.2878 14.1917 18.2873 14.6095C17.2867 15.0273 16.4329 15.7331 15.8344 16.6372C15.2359 17.5413 14.9196 18.6029 14.9258 19.6872C14.9356 21.1262 15.5116 22.5036 16.5292 23.5212C17.5468 24.5388 18.9242 25.1148 20.3633 25.1247ZM20.3633 23.8747C19.3697 23.8716 18.4094 23.5163 17.6531 22.8721C16.8967 22.2278 16.3932 21.3363 16.232 20.3559H16.2945C17.3419 20.345 18.3773 20.1329 19.3445 19.7309C20.1858 19.3945 20.9447 18.8808 21.5695 18.2247C22.322 19.1833 23.37 19.8666 24.5508 20.1684C24.4231 21.1898 23.9274 22.1297 23.1566 22.8119C22.3857 23.4941 21.3926 23.872 20.3633 23.8747ZM20.3633 15.4372C21.3448 15.439 22.2956 15.7796 23.0551 16.4013C23.8146 17.0231 24.3363 17.8879 24.532 18.8497C24.0303 18.7073 23.5646 18.4598 23.1658 18.1236C22.7671 17.7874 22.4445 17.3702 22.2195 16.8997C22.1783 16.7825 22.1031 16.6802 22.0035 16.606C21.9039 16.5317 21.7844 16.4888 21.6603 16.4828C21.5362 16.4768 21.4132 16.5079 21.3068 16.5721C21.2005 16.6363 21.1157 16.7308 21.0633 16.8434C20.5528 17.6597 19.7788 18.2771 18.8695 18.5934C18.0283 18.9363 17.1279 19.1104 16.2195 19.1059C16.3508 18.0971 16.8427 17.1699 17.6044 16.4956C18.366 15.8212 19.346 15.4453 20.3633 15.4372Z" fill="#A8D5BA"/>
<path d="M25.8445 27.2122C24.685 26.2823 23.2433 25.7752 21.757 25.7747H18.9695C17.481 25.7748 16.0378 26.2867 14.882 27.2247C14.5209 27.518 14.1901 27.8467 13.8945 28.2059C12.9731 29.362 12.4708 30.7963 12.4695 32.2747V38.0434C12.4695 38.2092 12.5354 38.3681 12.6526 38.4854C12.7698 38.6026 12.9288 38.6684 13.0945 38.6684H27.632C27.7978 38.6684 27.9568 38.6026 28.074 38.4854C28.1912 38.3681 28.257 38.2092 28.257 38.0434V32.2747C28.2574 31.3044 28.041 30.3463 27.6236 29.4704C27.2062 28.5945 26.5984 27.823 25.8445 27.2122ZM23.8195 32.5372C23.8204 32.5719 23.8142 32.6064 23.8013 32.6386C23.7884 32.6709 23.7691 32.7001 23.7446 32.7247C23.72 32.7492 23.6907 32.7685 23.6585 32.7814C23.6263 32.7943 23.5917 32.8005 23.557 32.7997C23.4874 32.7997 23.4206 32.772 23.3714 32.7228C23.3222 32.6735 23.2945 32.6068 23.2945 32.5372C23.2945 32.4675 23.3222 32.4008 23.3714 32.3515C23.4206 32.3023 23.4874 32.2747 23.557 32.2747C23.5917 32.2738 23.6263 32.28 23.6585 32.2929C23.6907 32.3058 23.72 32.3251 23.7446 32.3496C23.7691 32.3742 23.7884 32.4035 23.8013 32.4357C23.8142 32.4679 23.8204 32.5025 23.8195 32.5372ZM27.007 37.4184H13.7195V32.2747C13.7182 31.0848 14.1215 29.93 14.8633 28.9997C15.1065 28.7065 15.3764 28.4366 15.6695 28.1934C16.03 27.8998 16.4297 27.6579 16.857 27.4747V29.5434C16.4263 29.6722 16.0485 29.9363 15.7795 30.2965C15.5105 30.6566 15.3646 31.0939 15.3633 31.5434V33.4184C15.3633 33.5842 15.4291 33.7431 15.5463 33.8603C15.6635 33.9776 15.8225 34.0434 15.9883 34.0434H16.5508C16.7165 34.0517 16.8788 33.9938 17.0019 33.8824C17.1249 33.7711 17.1987 33.6154 17.207 33.4497C17.2153 33.2839 17.1574 33.1216 17.0461 32.9986C16.9347 32.8755 16.779 32.8017 16.6133 32.7934V31.5434C16.6133 31.3163 16.7035 31.0985 16.8641 30.9379C17.0246 30.7774 17.2424 30.6872 17.4695 30.6872C17.6966 30.6872 17.9144 30.7774 18.075 30.9379C18.2356 31.0985 18.3258 31.3163 18.3258 31.5434V32.7934C18.16 32.7934 18.001 32.8593 17.8838 32.9765C17.7666 33.0937 17.7008 33.2526 17.7008 33.4184C17.7008 33.5842 17.7666 33.7431 17.8838 33.8603C18.001 33.9776 18.16 34.0434 18.3258 34.0434H18.9508C19.1165 34.0434 19.2755 33.9776 19.3927 33.8603C19.5099 33.7431 19.5758 33.5842 19.5758 33.4184V31.5434C19.5743 31.0957 19.4298 30.6601 19.1634 30.3003C18.8969 29.9405 18.5224 29.6753 18.0945 29.5434V27.3309C18.0943 27.2532 18.0773 27.1764 18.0445 27.1059C18.3455 27.0507 18.651 27.0235 18.957 27.0247H21.7445C22.166 27.0261 22.5857 27.0786 22.9945 27.1809C22.9463 27.2669 22.9205 27.3636 22.9195 27.4622V31.1684C22.6048 31.3112 22.3485 31.5575 22.1932 31.8663C22.038 32.175 21.9931 32.5277 22.0662 32.8655C22.1393 33.2033 22.3258 33.5058 22.5948 33.7229C22.8637 33.9399 23.1989 34.0582 23.5445 34.0582C23.8901 34.0582 24.2253 33.9399 24.4943 33.7229C24.7633 33.5058 24.9498 33.2033 25.0228 32.8655C25.0959 32.5277 25.0511 32.175 24.8958 31.8663C24.7406 31.5575 24.4842 31.3112 24.1695 31.1684V27.6184C24.4798 27.7777 24.773 27.9683 25.0445 28.1872C25.654 28.6797 26.1455 29.3025 26.4829 30.0098C26.8204 30.7171 26.9952 31.491 26.9945 32.2747L27.007 37.4184Z" fill="#A8D5BA"/>
<path d="M31.6133 18.5997C32.6624 18.6046 33.6893 18.2977 34.5637 17.7179C35.4381 17.1381 36.1205 16.3116 36.5242 15.3433C36.928 14.375 37.0349 13.3085 36.8315 12.2793C36.628 11.2501 36.1233 10.3046 35.3815 9.56271C34.6396 8.82087 33.6941 8.31618 32.6649 8.11271C31.6356 7.90925 30.5692 8.01619 29.6009 8.41996C28.6326 8.82372 27.806 9.50611 27.2263 10.3805C26.6465 11.2549 26.3396 12.2818 26.3445 13.3309C26.3527 14.7257 26.9105 16.0611 27.8968 17.0474C28.8831 18.0337 30.2184 18.5914 31.6133 18.5997ZM31.6133 17.3497C30.665 17.3474 29.7479 17.0109 29.0232 16.3993C28.2984 15.7878 27.8125 14.9403 27.6508 14.0059H27.6883C28.6987 14.0002 29.6984 13.7986 30.632 13.4122C31.441 13.095 32.1707 12.6043 32.7695 11.9747C33.5026 12.8876 34.5147 13.5353 35.6508 13.8184C35.523 14.7976 35.0423 15.6965 34.299 16.3467C33.5557 16.9968 32.6008 17.3534 31.6133 17.3497ZM31.6133 9.2934C32.5466 9.29465 33.4512 9.61622 34.1758 10.2044C34.9005 10.7925 35.4013 11.6116 35.5945 12.5247C35.12 12.3837 34.6808 12.1437 34.3059 11.8205C33.931 11.4973 33.6289 11.0982 33.4195 10.6497C33.3788 10.5326 33.3042 10.4302 33.2051 10.3556C33.1061 10.2811 32.9871 10.2377 32.8633 10.2309C32.7351 10.2187 32.6063 10.2463 32.4944 10.3101C32.3825 10.3739 32.2931 10.4706 32.2383 10.5872C31.7495 11.3709 31.0057 11.9625 30.132 12.2622C29.3388 12.5886 28.4898 12.7584 27.632 12.7622C27.7686 11.8023 28.246 10.9236 28.977 10.2867C29.708 9.64983 30.6438 9.29724 31.6133 9.2934Z" fill="#A8D5BA"/>
<path d="M31.9883 19.031H31.3195C30.4654 19.0318 29.6198 19.201 28.8311 19.5288C28.0424 19.8566 27.326 20.3366 26.723 20.9414C26.1199 21.5463 25.6419 22.264 25.3164 23.0537C24.9909 23.8433 24.8241 24.6894 24.8258 25.5435C24.8258 25.7093 24.8916 25.8682 25.0088 25.9854C25.1261 26.1027 25.285 26.1685 25.4508 26.1685C25.6165 26.1685 25.7755 26.1027 25.8927 25.9854C26.0099 25.8682 26.0758 25.7093 26.0758 25.5435C26.0758 24.1528 26.6283 22.819 27.6116 21.8356C28.595 20.8522 29.9288 20.2998 31.3195 20.2998H31.9883C33.3796 20.2998 34.714 20.852 35.6984 21.8352C36.6828 22.8184 37.2366 24.1522 37.2383 25.5435V32.6248H29.7383C29.5725 32.6248 29.4136 32.6906 29.2963 32.8078C29.1791 32.925 29.1133 33.084 29.1133 33.2498C29.1133 33.4155 29.1791 33.5745 29.2963 33.6917C29.4136 33.8089 29.5725 33.8748 29.7383 33.8748H37.8633C38.029 33.8748 38.188 33.8089 38.3052 33.6917C38.4224 33.5745 38.4883 33.4155 38.4883 33.2498V25.5435C38.4891 24.6891 38.3216 23.8429 37.9954 23.0532C37.6692 22.2635 37.1907 21.5458 36.5871 20.9411C35.9835 20.3363 35.2667 19.8564 34.4776 19.5287C33.6886 19.2009 32.8427 19.0318 31.9883 19.031Z" fill="#A8D5BA"/>
<path d="M11.282 32.3309H3.48828V27.6122C3.48994 26.2209 4.04379 24.8871 5.02818 23.9039C6.01257 22.9207 7.34698 22.3684 8.73828 22.3684H9.40703C10.4722 22.3711 11.5115 22.697 12.3875 23.3029C13.2635 23.9089 13.935 24.7664 14.3133 25.7622C14.3721 25.918 14.4905 26.044 14.6422 26.1126C14.794 26.1812 14.9668 26.1866 15.1227 26.1278C15.2785 26.0689 15.4045 25.9506 15.4731 25.7988C15.5417 25.647 15.5471 25.4742 15.4883 25.3184C15.0174 24.0861 14.1844 23.0252 13.0989 22.2755C12.0134 21.5258 10.7263 21.1224 9.40703 21.1184H8.73828C7.01596 21.1201 5.36457 21.8046 4.14612 23.0218C2.92767 24.2391 2.24159 25.8898 2.23828 27.6122V32.9559C2.23828 33.1217 2.30413 33.2806 2.42134 33.3979C2.53855 33.5151 2.69752 33.5809 2.86328 33.5809H11.282C11.4478 33.5809 11.6068 33.5151 11.724 33.3979C11.8412 33.2806 11.907 33.1217 11.907 32.9559C11.907 32.7901 11.8412 32.6312 11.724 32.514C11.6068 32.3968 11.4478 32.3309 11.282 32.3309Z" fill="#A8D5BA"/>
<path d="M12.7008 27.1185C12.8665 27.1185 13.0255 27.0527 13.1427 26.9354C13.2599 26.8182 13.3258 26.6593 13.3258 26.4935C13.3258 26.3277 13.2599 26.1688 13.1427 26.0516C13.0255 25.9344 12.8665 25.8685 12.7008 25.8685H12.2695V25.4373C12.2695 25.2715 12.2037 25.1125 12.0865 24.9953C11.9693 24.8781 11.8103 24.8123 11.6445 24.8123C11.4788 24.8123 11.3198 24.8781 11.2026 24.9953C11.0854 25.1125 11.0195 25.2715 11.0195 25.4373V25.8685H10.5945C10.4288 25.8685 10.2698 25.9344 10.1526 26.0516C10.0354 26.1688 9.96953 26.3277 9.96953 26.4935C9.96953 26.6593 10.0354 26.8182 10.1526 26.9354C10.2698 27.0527 10.4288 27.1185 10.5945 27.1185H11.0195V27.5498C11.0195 27.7155 11.0854 27.8745 11.2026 27.9917C11.3198 28.1089 11.4788 28.1748 11.6445 28.1748C11.8103 28.1748 11.9693 28.1089 12.0865 27.9917C12.2037 27.8745 12.2695 27.7155 12.2695 27.5498V27.1185H12.7008Z" fill="#A8D5BA"/>
<path d="M34.4633 23.0435C34.2975 23.0435 34.1386 23.1093 34.0213 23.2265C33.9041 23.3437 33.8383 23.5027 33.8383 23.6685V24.0997H33.4133C33.2475 24.0997 33.0886 24.1656 32.9713 24.2828C32.8541 24.4 32.7883 24.5589 32.7883 24.7247C32.7883 24.8905 32.8541 25.0494 32.9713 25.1666C33.0886 25.2839 33.2475 25.3497 33.4133 25.3497H33.8383V25.781C33.8383 25.9467 33.9041 26.1057 34.0213 26.2229C34.1386 26.3401 34.2975 26.406 34.4633 26.406C34.629 26.406 34.788 26.3401 34.9052 26.2229C35.0224 26.1057 35.0883 25.9467 35.0883 25.781V25.3497H35.5195C35.6853 25.3497 35.8443 25.2839 35.9615 25.1666C36.0787 25.0494 36.1445 24.8905 36.1445 24.7247C36.1445 24.5589 36.0787 24.4 35.9615 24.2828C35.8443 24.1656 35.6853 24.0997 35.5195 24.0997H35.0883V23.6685C35.0883 23.5027 35.0224 23.3437 34.9052 23.2265C34.788 23.1093 34.629 23.0435 34.4633 23.0435Z" fill="#A8D5BA"/>
</svg>
